SplineFontDB: 3.0
FontName: Walbaum14-Italic
FullName: Walbaum 14-point Italic
FamilyName: Walbaum14
Weight: Book
Copyright: Copyright (c) 2009 Barry Schwartz\n\nPermission is hereby granted, free of charge, to any person\nobtaining a copy of this software and associated documentation\nfiles (the "Software"), to deal in the Software without\nrestriction, including without limitation the rights to use,\ncopy, modify, merge, publish, distribute, sublicense, and/or sell\ncopies of the Software, and to permit persons to whom the\nSoftware is furnished to do so, subject to the following\nconditions:\n\nThe above copyright notice and this permission notice shall be\nincluded in all copies or substantial portions of the Software.\n\nTHE SOFTWARE IS PROVIDED "AS IS", WITHOUT WARRANTY OF ANY KIND,\nEXPRESS OR IMPLIED, INCLUDING BUT NOT LIMITED TO THE WARRANTIES\nOF MERCHANTABILITY, FITNESS FOR A PARTICULAR PURPOSE AND\nNONINFRINGEMENT. IN NO EVENT SHALL THE AUTHORS OR COPYRIGHT\nHOLDERS BE LIABLE FOR ANY CLAIM, DAMAGES OR OTHER LIABILITY,\nWHETHER IN AN ACTION OF CONTRACT, TORT OR OTHERWISE, ARISING\nFROM, OUT OF OR IN CONNECTION WITH THE SOFTWARE OR THE USE OR\nOTHER DEALINGS IN THE SOFTWARE.
UComments: "2009-7-28: Created." 
Version: 001.000
ItalicAngle: -12
UnderlinePosition: -204
UnderlineWidth: 102
Ascent: 1424
Descent: 624
LayerCount: 3
Layer: 0 0 "Back"  1
Layer: 1 0 "Fore"  0
Layer: 2 0 "backup"  1
XUID: [1021 658 797806517 12611104]
FSType: 0
OS2Version: 0
OS2_WeightWidthSlopeOnly: 0
OS2_UseTypoMetrics: 1
CreationTime: 1248824893
ModificationTime: 1248936431
OS2TypoAscent: 0
OS2TypoAOffset: 1
OS2TypoDescent: 0
OS2TypoDOffset: 1
OS2TypoLinegap: 184
OS2WinAscent: 0
OS2WinAOffset: 1
OS2WinDescent: 0
OS2WinDOffset: 1
HheadAscent: 0
HheadAOffset: 1
HheadDescent: 0
HheadDOffset: 1
OS2Vendor: 'PfEd'
DEI: 91125
Encoding: UnicodeBmp
UnicodeInterp: none
NameList: Adobe Glyph List
DisplaySize: -72
AntiAlias: 1
FitToEm: 1
WinInfo: 40 8 6
BeginPrivate: 8

StartChar: y
Encoding: 121 121 0
Width: 1162
VWidth: 0
Flags: W
HStem: -587 40<-17.684 125.174> 640 199<989.521 1138.96> 711 110<211.027 438>
VStem: -169 166<-529.018 -375.059> 34 47<405.094 504.301>
LayerCount: 3
Fore
SplineSet
-169 -450 m 0xb8
 -169 -401 -129 -361 -84 -361 c 0
 -35 -361 -3 -428 -3 -467 c 0
 -3 -491 -7 -509 -19 -530 c 1
 0 -543 22 -547 46 -547 c 0
 240 -547 435 -194 435 12 c 0
 435 172 373 711 244 711 c 0
 149 711 84 439 81 428 c 0
 78 419 72 405 59 405 c 0
 52 405 34 410 34 426 c 0
 34 434 114 821 325 821 c 0xb8
 551 821 546 428 578 223 c 9
 715 429 776 556 927 752 c 16
 965 801 997 839 1057 839 c 0
 1133 839 1156 783 1156 743 c 0
 1156 680 1104 640 1067 640 c 0xd8
 1020 640 1003 677 959 711 c 1
 568 192 522 -29 495 -91 c 0
 330 -474 206 -587 13 -587 c 0
 -80 -587 -169 -560 -169 -450 c 0xb8
EndSplineSet
Validated: 1
EndChar

StartChar: Q
Encoding: 81 81 1
Width: 1430
VWidth: 0
Flags: W
HStem: -591 50<759.327 1034> -45 54<441.536 724.638> 1400 47<759.153 1018.37>
VStem: 76 201<281.411 641.72> 1213 191<745 1149.42>
LayerCount: 3
Fore
SplineSet
76 531 m 0
 76 878 396 1447 869 1447 c 0
 1297 1447 1404 1157 1404 888 c 0
 1404 755 1366 549 1304 435 c 0
 1135 116 886 -45 608 -45 c 0
 551 -45 499 -42 437 -36 c 9
 509 -103 555 -132 619 -207 c 0
 713 -318 670 -420 758 -521 c 16
 775 -540 797 -541 824 -541 c 2
 1034 -541 l 9
 1034 -591 l 17
 816 -591 l 2
 389 -591 485 -140 388 -34 c 0
 366 -8 343 11 323 27 c 0
 322 28 76 158 76 531 c 0
277 334 m 0
 277 90 384 9 549 9 c 0
 723 9 873 75 968 202 c 0
 1106 385 1213 912 1213 1002 c 0
 1213 1368 1004 1400 889 1400 c 0
 760 1400 650 1342 559 1243 c 0
 457 1132 277 621 277 334 c 0
EndSplineSet
Validated: 1
EndChar

StartChar: O
Encoding: 79 79 2
Width: 1498
VWidth: 0
Flags: W
HStem: -30 43<536.402 807.142> 1393 33<826.964 1059.2>
VStem: 150 211<275.39 642.038> 1284 181<795.715 1139.49>
LayerCount: 3
Fore
SplineSet
150 504 m 0
 150 833 465 1426 941 1426 c 0
 1322 1426 1465 1166 1465 908 c 0
 1465 314 953 -30 680 -30 c 0
 581 -30 150 25 150 504 c 0
361 328 m 0
 361 84 511 13 662 13 c 0
 836 13 917 75 1012 202 c 0
 1150 385 1284 887 1284 1062 c 0
 1284 1306 1104 1393 952 1393 c 0
 771 1393 622 1348 455 824 c 0
 401 654 361 470 361 328 c 0
EndSplineSet
Validated: 1
EndChar

StartChar: A
Encoding: 65 65 3
Width: 1562
VWidth: 0
Flags: W
HStem: 0 50<67 202 277 538 769 988 1184 1400> 594 50<806 1145>
LayerCount: 3
Fore
SplineSet
67 0 m 25
 67 50 l 25
 202 50 l 17
 1323 1283 1432 1402 1478 1402 c 0
 1485 1402 1499 1398 1499 1383 c 0
 1499 1306 1452 1112 1184 50 c 9
 1400 50 l 25
 1400 0 l 17
 769 0 l 9
 769 50 l 25
 988 50 l 25
 1145 594 l 25
 766 594 l 25
 277 50 l 25
 538 50 l 25
 538 0 l 25
 67 0 l 25
806 644 m 9
 1159 644 l 17
 1328 1219 l 1
 806 644 l 9
EndSplineSet
Validated: 1
EndChar

StartChar: x
Encoding: 120 120 4
Width: 1192
VWidth: 0
Flags: W
HStem: -40 67<198 291.386 646.649 802.583> 608 212<297 605 1056.36 1169.32> 766 54<474.198 622.15>
VStem: 58 165<21.4087 176.702> 476 157<34.3131 127> 1034 153<615.084 757.406>
LayerCount: 3
Fore
SplineSet
58 87 m 0xdc
 58 150 99 192 155 192 c 0
 194 192 223 148 223 111 c 0
 223 58 198 21 198 21 c 1
 253 21 359 60 470 197 c 0
 508 243 640 519 640 674 c 0
 640 729 621 766 569 766 c 0xbc
 468 766 378 698 318 625 c 0
 311 617 305 608 297 608 c 0
 293 608 278 615 278 624 c 0
 278 654 417 820 605 820 c 0
 761 820 793 656 793 656 c 1
 907 780 1022 819 1081 819 c 0
 1136 819 1187 793 1187 699 c 0
 1187 640 1174 599 1118 599 c 0
 1070 599 1047 645 1034 758 c 1
 939 738 855 665 820 605 c 0
 725 443 633 148 633 99 c 0
 633 43 690 27 708 27 c 0
 846 27 998 179 1016 179 c 0
 1028 179 1042 165 1042 155 c 0
 1042 134 834 -40 656 -40 c 0
 477 -40 476 123 476 127 c 1
 476 127 333 -29 197 -29 c 0
 128 -29 58 16 58 87 c 0xdc
EndSplineSet
Validated: 1
EndChar

StartChar: z
Encoding: 122 122 5
Width: 1027
VWidth: 0
Flags: W
HStem: -29 68<519 802.042> 59 115<216.117 408.901> 660 154<256.375 708>
VStem: 165 66<489.401 551> 788 164<99.4982 253.073>
LayerCount: 3
Fore
SplineSet
60 -1 m 0
 60 5 65 15 79 29 c 2
 708 660 l 1
 290 660 l 2
 270 660 270 658 261 632 c 2
 231 551 l 2
 216 511 211 489 195 489 c 0
 185 489 165 497 165 510 c 0
 165 521 175 540 187 576 c 2
 261 785 l 2
 270 812 280 814 296 814 c 0
 481 814 665 814 850 814 c 0
 871 814 870 812 879 792 c 0
 881 786 884 782 884 778 c 0
 884 769 873 759 842 727 c 2
 264 144 l 1
 307 152 343 174 400 174 c 0
 560 174 621 39 709 39 c 0
 809 39 844 91 844 91 c 1
 844 91 788 122 788 189 c 0
 788 227 824 265 867 265 c 0
 893 265 952 243 952 175 c 0
 952 82 841 -29 609 -29 c 0
 429 -29 378 59 253 59 c 0
 153 59 116 -29 90 -29 c 0
 78 -29 60 -10 60 -1 c 0
EndSplineSet
Validated: 1
EndChar

StartChar: w
Encoding: 119 119 6
Width: 1494
VWidth: 0
Flags: W
HStem: -30 55<238.764 379.338 772.533 923.882> 764 50<46.0493 237>
VStem: 87 135<33.2738 306.955> 614 143<32.07 231.234> 806 164<749 809.775> 1362 74<459.82 712.5>
LayerCount: 3
Fore
SplineSet
46 787 m 0
 46 809 61 814 68 814 c 2
 380 814 l 2
 397 814 403 812 403 800 c 0
 403 753 222 210 222 100 c 0
 222 55 254 25 307 25 c 0
 379 25 485 79 594 225 c 0
 635 280 669 356 701 449 c 2
 806 749 l 2
 822 795 824 811 868 811 c 2
 932 811 l 2
 957 811 970 810 970 790 c 0
 970 781 968 767 961 749 c 2
 892 548 l 2
 780 222 757 155 757 100 c 0
 757 52 781 26 840 26 c 0
 1073 26 1362 308 1362 541 c 0
 1362 629 1210 645 1210 727 c 0
 1210 781 1252 809 1300 809 c 0
 1363 809 1436 761 1436 664 c 0
 1436 317 1129 -21 795 -21 c 0
 643 -21 614 56 614 116 c 0
 614 154 625 185 625 185 c 1
 625 185 457 -30 251 -30 c 0
 123 -30 87 42 87 128 c 0
 87 206 116 296 132 355 c 2
 214 671 l 2
 222 702 230 734 237 764 c 1
 68 764 l 2
 50 764 46 776 46 787 c 0
EndSplineSet
Validated: 1
EndChar

StartChar: v
Encoding: 118 118 7
Width: 1074
VWidth: 0
Flags: W
HStem: -28 54<401.794 572.731> 745 80<312.459 489>
VStem: 231 157<31.9791 259.838> 392 181<581.4 779.124> 970 91<433.948 681>
LayerCount: 3
Fore
SplineSet
86 564 m 0
 86 596 253 825 461 825 c 0
 517 825 573 806 573 746 c 0
 573 696 388 149 388 100 c 0
 388 52 411 26 470 26 c 0
 703 26 970 295 970 503 c 0
 970 639 829 623 829 728 c 0
 829 784 877 811 915 811 c 0
 991 811 1061 727 1061 635 c 0
 1061 519 975 151 632 18 c 0
 558 -11 480 -28 413 -28 c 0
 309 -28 231 12 231 115 c 0
 231 187 392 633 392 696 c 0
 392 723 382 745 365 745 c 0
 269 745 161 622 121 568 c 0
 111 555 105 550 99 550 c 0
 96 550 86 553 86 564 c 0
EndSplineSet
Validated: 1
EndChar

StartChar: u
Encoding: 117 117 8
Width: 1136
VWidth: 0
Flags: W
HStem: -26 63<195.175 390.031 744.489 871.314> 764 50<65.0493 259>
VStem: 106 135<43.095 300.443> 641 161<13.1943 251.092> 837 163<642.409 810.114>
LayerCount: 3
Fore
SplineSet
65 787 m 0
 65 809 80 814 87 814 c 2
 382 814 l 2
 407 814 412 807 412 796 c 0
 412 749 241 172 241 100 c 0
 241 55 273 37 326 37 c 0
 478 37 624 209 668 286 c 0
 743 422 837 748 837 749 c 0
 850 797 854 811 898 811 c 2
 962 811 l 2
 987 811 1000 810 1000 790 c 0
 1000 746 802 198 802 96 c 0
 802 62 811 44 831 44 c 0
 861 44 939 87 1020 183 c 0
 1052 222 1055 235 1066 235 c 0
 1077 235 1089 223 1089 215 c 0
 1089 185 930 -28 743 -28 c 0
 684 -28 641 -3 641 44 c 0
 641 96 673 167 681 225 c 1
 562 70 379 -26 251 -26 c 0
 142 -26 106 33 106 119 c 0
 106 186 129 270 151 355 c 2
 235 671 l 2
 243 702 252 734 259 764 c 1
 87 764 l 2
 69 764 65 776 65 787 c 0
EndSplineSet
Validated: 1
EndChar

StartChar: t
Encoding: 116 116 9
Width: 698
VWidth: 0
Flags: W
HStem: -17 51<166.5 332.521> 758 64<102.474 287 455 646.276>
VStem: 87 153<34.4236 269.722>
LayerCount: 3
Fore
SplineSet
87 78 m 0
 87 126 106 190 131 270 c 2
 287 764 l 1
 255 764 143 758 131 758 c 0
 109 758 102 763 102 780 c 0
 102 817 115 822 147 822 c 0
 154 822 264 814 302 814 c 1
 386 1065 l 2
 396 1095 414 1095 448 1095 c 2
 507 1095 l 2
 526 1095 542 1095 542 1079 c 0
 542 1076 542 1071 540 1065 c 2
 455 814 l 1
 511 814 607 821 616 821 c 0
 641 821 647 816 647 801 c 0
 647 760 626 758 607 758 c 0
 598 758 503 764 439 764 c 1
 366 532 l 2
 302 327 240 147 240 82 c 0
 240 47 255 34 277 34 c 0
 333 34 447 116 558 218 c 0
 561 221 566 223 569 223 c 0
 579 223 588 213 588 202 c 0
 588 198 586 192 582 188 c 0
 486 97 361 -17 213 -17 c 0
 120 -17 87 21 87 78 c 0
EndSplineSet
Validated: 1
EndChar

StartChar: a
Encoding: 97 97 10
Width: 1103
VWidth: 0
Flags: W
HStem: -28 30<262.307 387.28> 793 38<549.616 670.828>
VStem: 74 148<61.0856 345.822> 642 149<60.065 238> 749 42<600 691.291>
LayerCount: 3
Fore
SplineSet
74 242 m 0xf0
 74 549 378 831 587 831 c 0
 784 831 786 610 786 600 c 1
 877 821 855 831 915 831 c 2
 962 831 l 2
 989 831 1006 831 1006 811 c 0
 1006 767 791 253 791 112 c 0
 791 74 807 59 832 59 c 0
 935 59 1045 237 1055 246 c 0
 1058 249 1064 252 1066 252 c 0
 1073 252 1083 246 1083 236 c 0
 1083 221 948 -17 726 -17 c 0
 659 -17 642 28 642 77 c 0
 642 111 650 140 654 177 c 1
 654 177 501 -28 293 -28 c 0
 123 -28 74 111 74 242 c 0xf0
222 118 m 0
 222 35 261 2 316 2 c 0
 410 2 551 98 632 208 c 8
 726 336 749 558 749 598 c 0xe8
 749 679 705 793 612 793 c 0
 433 793 222 352 222 118 c 0
EndSplineSet
Validated: 1
EndChar

StartChar: b
Encoding: 98 98 11
Width: 1030
VWidth: 0
Flags: W
HStem: -45 44<326.781 500.825> 818 53<649.187 822.557> 1324 50<274.266 480>
VStem: 131 152<28.7949 307.591> 868 150<487.482 760.489>
LayerCount: 3
Fore
SplineSet
131 116 m 0
 131 225 480 1324 480 1324 c 1
 293 1324 l 2
 276 1324 274 1330 274 1338 c 2
 274 1343 l 2
 274 1372 289 1374 301 1374 c 2
 612 1374 l 2
 631 1374 638 1371 638 1360 c 0
 638 1351 634 1336 627 1315 c 2
 456 736 l 1
 456 736 619 871 780 871 c 0
 927 871 1018 742 1018 601 c 0
 1018 255 689 -45 421 -45 c 0
 290 -45 131 11 131 116 c 0
283 148 m 0
 283 29 331 -1 405 -1 c 0
 633 -1 752 304 787 390 c 0
 847 540 868 627 868 684 c 0
 868 777 814 818 741 818 c 0
 647 818 522 751 440 641 c 0
 390 575 283 217 283 148 c 0
EndSplineSet
Validated: 1
EndChar

StartChar: c
Encoding: 99 99 12
Width: 632
VWidth: 0
Flags: W
HStem: 466 242<336.015 515.179>
VStem: 306 237<492.522 677.06>
LayerCount: 3
Fore
SplineSet
306 581 m 0
 306 657 366 708 433 708 c 0
 495 708 543 651 543 589 c 0
 543 522 493 466 425 466 c 0
 362 466 306 518 306 581 c 0
EndSplineSet
Validated: 1
EndChar

StartChar: d
Encoding: 100 100 13
Width: 632
VWidth: 0
Flags: W
HStem: 466 242<336.015 515.179>
VStem: 306 237<492.522 677.06>
LayerCount: 3
Fore
SplineSet
306 581 m 0
 306 657 366 708 433 708 c 0
 495 708 543 651 543 589 c 0
 543 522 493 466 425 466 c 0
 362 466 306 518 306 581 c 0
EndSplineSet
Validated: 1
EndChar

StartChar: e
Encoding: 101 101 14
Width: 632
VWidth: 0
Flags: W
HStem: 466 242<336.015 515.179>
VStem: 306 237<492.522 677.06>
LayerCount: 3
Fore
SplineSet
306 581 m 0
 306 657 366 708 433 708 c 0
 495 708 543 651 543 589 c 0
 543 522 493 466 425 466 c 0
 362 466 306 518 306 581 c 0
EndSplineSet
Validated: 1
EndChar

StartChar: f
Encoding: 102 102 15
Width: 632
VWidth: 0
Flags: W
HStem: 466 242<336.015 515.179>
VStem: 306 237<492.522 677.06>
LayerCount: 3
Fore
SplineSet
306 581 m 0
 306 657 366 708 433 708 c 0
 495 708 543 651 543 589 c 0
 543 522 493 466 425 466 c 0
 362 466 306 518 306 581 c 0
EndSplineSet
Validated: 1
EndChar

StartChar: g
Encoding: 103 103 16
Width: 632
VWidth: 0
Flags: W
HStem: 466 242<336.015 515.179>
VStem: 306 237<492.522 677.06>
LayerCount: 3
Fore
SplineSet
306 581 m 0
 306 657 366 708 433 708 c 0
 495 708 543 651 543 589 c 0
 543 522 493 466 425 466 c 0
 362 466 306 518 306 581 c 0
EndSplineSet
Validated: 1
EndChar

StartChar: h
Encoding: 104 104 17
Width: 632
VWidth: 0
Flags: W
HStem: 466 242<336.015 515.179>
VStem: 306 237<492.522 677.06>
LayerCount: 3
Fore
SplineSet
306 581 m 0
 306 657 366 708 433 708 c 0
 495 708 543 651 543 589 c 0
 543 522 493 466 425 466 c 0
 362 466 306 518 306 581 c 0
EndSplineSet
Validated: 1
EndChar

StartChar: i
Encoding: 105 105 18
Width: 632
VWidth: 0
Flags: W
HStem: 466 242<336.015 515.179>
VStem: 306 237<492.522 677.06>
LayerCount: 3
Fore
SplineSet
306 581 m 0
 306 657 366 708 433 708 c 0
 495 708 543 651 543 589 c 0
 543 522 493 466 425 466 c 0
 362 466 306 518 306 581 c 0
EndSplineSet
Validated: 1
EndChar

StartChar: j
Encoding: 106 106 19
Width: 632
VWidth: 0
Flags: W
HStem: 466 242<336.015 515.179>
VStem: 306 237<492.522 677.06>
LayerCount: 3
Fore
SplineSet
306 581 m 0
 306 657 366 708 433 708 c 0
 495 708 543 651 543 589 c 0
 543 522 493 466 425 466 c 0
 362 466 306 518 306 581 c 0
EndSplineSet
Validated: 1
EndChar

StartChar: k
Encoding: 107 107 20
Width: 632
VWidth: 0
Flags: W
HStem: 466 242<336.015 515.179>
VStem: 306 237<492.522 677.06>
LayerCount: 3
Fore
SplineSet
306 581 m 0
 306 657 366 708 433 708 c 0
 495 708 543 651 543 589 c 0
 543 522 493 466 425 466 c 0
 362 466 306 518 306 581 c 0
EndSplineSet
Validated: 1
EndChar

StartChar: l
Encoding: 108 108 21
Width: 632
VWidth: 0
Flags: W
HStem: 466 242<336.015 515.179>
VStem: 306 237<492.522 677.06>
LayerCount: 3
Fore
SplineSet
306 581 m 0
 306 657 366 708 433 708 c 0
 495 708 543 651 543 589 c 0
 543 522 493 466 425 466 c 0
 362 466 306 518 306 581 c 0
EndSplineSet
Validated: 1
EndChar

StartChar: m
Encoding: 109 109 22
Width: 632
VWidth: 0
Flags: W
HStem: 466 242<336.015 515.179>
VStem: 306 237<492.522 677.06>
LayerCount: 3
Fore
SplineSet
306 581 m 0
 306 657 366 708 433 708 c 0
 495 708 543 651 543 589 c 0
 543 522 493 466 425 466 c 0
 362 466 306 518 306 581 c 0
EndSplineSet
Validated: 1
EndChar

StartChar: n
Encoding: 110 110 23
Width: 632
VWidth: 0
Flags: W
HStem: 466 242<336.015 515.179>
VStem: 306 237<492.522 677.06>
LayerCount: 3
Fore
SplineSet
306 581 m 0
 306 657 366 708 433 708 c 0
 495 708 543 651 543 589 c 0
 543 522 493 466 425 466 c 0
 362 466 306 518 306 581 c 0
EndSplineSet
Validated: 1
EndChar

StartChar: o
Encoding: 111 111 24
Width: 632
VWidth: 0
Flags: W
HStem: 466 242<336.015 515.179>
VStem: 306 237<492.522 677.06>
LayerCount: 3
Fore
SplineSet
306 581 m 0
 306 657 366 708 433 708 c 0
 495 708 543 651 543 589 c 0
 543 522 493 466 425 466 c 0
 362 466 306 518 306 581 c 0
EndSplineSet
Validated: 1
EndChar

StartChar: p
Encoding: 112 112 25
Width: 632
VWidth: 0
Flags: W
HStem: 466 242<336.015 515.179>
VStem: 306 237<492.522 677.06>
LayerCount: 3
Fore
SplineSet
306 581 m 0
 306 657 366 708 433 708 c 0
 495 708 543 651 543 589 c 0
 543 522 493 466 425 466 c 0
 362 466 306 518 306 581 c 0
EndSplineSet
Validated: 1
EndChar

StartChar: q
Encoding: 113 113 26
Width: 632
VWidth: 0
Flags: W
HStem: 466 242<336.015 515.179>
VStem: 306 237<492.522 677.06>
LayerCount: 3
Fore
SplineSet
306 581 m 0
 306 657 366 708 433 708 c 0
 495 708 543 651 543 589 c 0
 543 522 493 466 425 466 c 0
 362 466 306 518 306 581 c 0
EndSplineSet
Validated: 1
EndChar

StartChar: r
Encoding: 114 114 27
Width: 897
VWidth: 0
Flags: W
HStem: 0 21G<99 201.5> 590 226<720.545 849.5> 764 50<96.0214 324>
VStem: 704 168<608.668 742.975>
LayerCount: 3
Fore
SplineSet
66 24 m 0xd0
 66 34 71 48 78 68 c 2
 324 764 l 1
 121 764 l 2
 99 764 96 775 96 787 c 0
 96 804 98 814 132 814 c 2
 467 814 l 2xb0
 495 814 495 810 495 803 c 0
 495 795 477 755 424 603 c 1
 481 668 671 816 785 816 c 0
 841 816 872 779 872 719 c 0
 872 635 824 590 776 590 c 0
 738 590 704 618 704 674 c 0
 704 708 717 743 717 743 c 1
 704 734 454 641 343 365 c 0
 200 8 244 0 159 0 c 2
 119 0 l 2
 79 0 66 0 66 24 c 0xd0
EndSplineSet
Validated: 1
EndChar

StartChar: s
Encoding: 115 115 28
Width: 753
VWidth: 0
Flags: W
HStem: -36 58<232.864 418.602> 786 53<359.364 518.934>
VStem: 37 174<63.5931 258.555> 214 105<485 715.969> 491 135<114.888 261.645>
LayerCount: 3
Fore
SplineSet
37 179 m 0
 37 234 80 271 124 271 c 0
 159 271 211 252 211 130 c 0
 211 86 215 22 317 22 c 0
 397 22 491 76 491 156 c 0
 491 311 214 391 214 579 c 0
 214 651 278 839 470 839 c 0
 585 839 696 775 696 676 c 0
 696 639 676 609 646 609 c 0
 531 609 593 786 446 786 c 0
 384 786 319 752 319 698 c 0
 319 597 626 451 626 253 c 0
 626 122 501 -36 307 -36 c 0
 137 -36 37 80 37 179 c 0
EndSplineSet
Validated: 1
EndChar

